<?xml version="1.0" encoding="UTF-8"?>
<svg id="Calque_2" data-name="Calque 2" xmlns="http://www.w3.org/2000/svg" viewBox="0 0 828.32 525.83">
  <g id="Calque_1-2" data-name="Calque 1">
    <g>
      <path d="M165.17,4.57h74.2c8.75,46.78,17.51,93.62,26.48,141.58,4.6-24.34,8.99-47.43,13.32-70.54,4.18-22.32,8.3-44.66,12.4-66.99,.41-2.22,.54-4.15,3.7-4.13,22.82,.09,45.65,.05,68.88,.05v251.89h-48.42V97.17c-.26-.02-.51-.05-.77-.07-10.54,52.8-21.08,105.61-31.66,158.58h-36.58c-10.66-52.91-21.3-105.74-31.95-158.58l-1.06,.14v158.87h-48.55V4.57Z"/>
      <path d="M795.48,148.49c10.88,35.84,21.77,71.68,32.83,108.1-10.91,0-20.86,.07-30.82-.02-6.16-.06-12.32-.52-18.48-.46-3.32,.03-4.76-.69-5.63-4.37-7.47-31.55-15.27-63.02-23.01-94.66h-9.74v98.43h-51.81V4.77c1.89,0,3.67,0,5.44,0,22.83,0,45.65-.03,68.48,.01,10.48,.02,20.76,1.28,30.25,6.13,15.71,8.03,24.64,21.55,28.25,38.15,4.41,20.27,3.53,40.97,1.21,61.43-1.87,16.57-10.23,29.39-25.67,36.91-.42,.2-.75,.59-1.34,1.07Zm-54.57-99.71V115.73c4.48,0,8.65,.27,12.76-.05,10.55-.83,17.94-6.89,18.02-18.43,.07-10.63,.49-21.3-.3-31.87-.77-10.25-8.88-17.49-18.06-16.66-3.96,.36-7.98,.06-12.42,.06Z"/>
      <path d="M384.57,130.63c0-22.49-.24-44.98,.08-67.46,.25-18.08,6.32-33.97,19.68-46.66,9.45-8.98,21.01-13.71,33.61-15.53,20.04-2.89,39,.38,55.47,12.84,13.56,10.26,22.51,24.2,22.89,41.13,1.09,48.92,.96,97.87,1.2,146.81,.02,3.1-.72,6.25-1.43,9.3-5.58,24.11-20.36,39.67-44.23,45.93-22.27,5.83-43.75,3.82-62.88-10.06-13.33-9.67-21.25-23.15-23.24-39.49-1.16-9.52-1.01-19.21-1.1-28.83-.16-15.99-.04-31.98-.04-47.97Zm52-1.77c-.17,0-.33,0-.5,0,0,22.83-.12,45.65,.05,68.48,.08,10.32,5.54,15.37,15.29,15.51,6.46,.09,14.37-6.14,14.32-15.77-.18-33.99,.32-67.98,.43-101.97,.04-11.49-.05-22.99-.58-34.47-.39-8.48-6.03-13.14-14.42-12.86-8.83,.3-14.56,5.76-14.58,14.1-.04,22.33-.01,44.65-.01,66.98Z"/>
      <path d="M619.25,4.54h50.53c0,63.18-.02,126.12,.01,189.07,0,13.23-1.76,25.96-8.75,37.61-9.43,15.72-23.79,24.23-41.21,27.33-18.91,3.37-37.41,1.27-54.24-8.81-16.37-9.81-25.69-24.5-28-43.42-.76-6.25-.98-12.6-.98-18.9-.06-59.66-.01-119.32,0-178.98,0-.98,0-1.97,0-3.32h51.96v5.85c0,62.16,0,124.32,.01,186.48,0,8.18,4.78,13.83,12.75,15.25,7.13,1.27,14.06-2.58,16.51-9.68,1-2.91,1.39-6.16,1.39-9.26,.06-61.83,.03-123.65,.01-185.48,0-1.14,0-2.28,0-3.75Z"/>
      <path d="M0,256.11C14.1,172.11,28.07,88.86,42.12,5.17H111.62c14.1,83.2,28.25,166.67,42.46,250.53h-51.43c-1.71-12.78-3.48-25.33-5.01-37.92-.31-2.55-.74-3.92-3.75-3.88-12.15,.14-24.31,.06-37.42,.06-2.04,13.87-4.09,27.8-6.2,42.15H0ZM77.02,78.33c-.26-.04-.51-.08-.77-.11-4.46,30.37-8.91,60.74-13.4,91.33h27.23c-4.37-30.51-8.72-60.87-13.06-91.22Z"/>
      <path d="M307.35,366.42c0-6.54,.1-12.84-.03-19.14-.13-6.43-1.94-12.19-7.95-15.58-9.59-5.41-20.3,.03-20.94,11.12-.75,12.96-.74,25.97-.79,38.96-.11,27.82-.08,55.64-.05,83.47,0,9.27,6.71,16.32,15.23,16.2,8.92-.12,14.71-6.32,14.74-15.87,.04-10.99,0-21.99,0-33.61h-15.94v-39.8h62.95c0,24.25,.12,48.37-.09,72.48-.05,5.74-.76,11.56-1.95,17.18-4.92,23.19-24.04,40.07-47.39,43.08-13.56,1.75-26.77,1.27-39.52-3.72-23.22-9.08-36.18-28.65-36.26-55.17-.12-41.31-.4-82.64,.4-123.94,.46-23.65,17.49-46.94,45.53-53.21,21.07-4.71,40.84-1.66,58.21,11.89,11.52,8.99,17.81,21.35,19.88,35.48,1.43,9.8,1.15,19.85,1.65,30.17h-47.68Z"/>
      <path d="M458.9,521.48c-2.16-13.45-4.24-26.44-6.34-39.5h-35.59c-1.8,13.21-3.58,26.27-5.4,39.54h-47.08c12.79-76.57,25.55-152.93,38.34-229.52h64.72c13.04,76.21,26.12,152.67,39.26,229.48h-47.91Zm-34.95-81.23h22.48c-3.74-25.83-7.41-51.16-11.08-76.48-.21,0-.41,.02-.62,.03-3.59,25.44-7.18,50.89-10.78,76.45Z"/>
      <path d="M67.83,441.21v80.15H20.9v-228.76c4.35,0,8.77-.01,13.2,0,18.65,.05,37.32-.31,55.96,.3,17.01,.56,32.85,4.74,43.17,20.05,5.63,8.35,8.85,17.72,9.27,27.74,.67,15.78,1.13,31.59,.96,47.37-.13,12.47-3.91,24.05-11.73,34.01-9.49,12.09-22.76,16.45-37.37,17.66-8.73,.72-17.51,.99-26.52,1.48Zm-.11-40.03c5.77-.57,11.11-.62,16.22-1.72,7.67-1.65,11.62-7.2,11.63-15.1,.01-10.32-.14-20.63,.03-30.94,.29-17.24-13.43-24.27-27.89-20.62v68.39Z"/>
      <path d="M813.21,335.56h-47.4v46.94h42.42v42.11h-42.28v53.95h46.23v42.86h-94.28v-229.41h95.32v43.54Z"/>
      <path d="M704.25,521.59h-88.39v-229.52h48.54v187.43h39.85v42.08Z"/>
      <path d="M604.74,521.53h-87.93v-229.39h48.69v187.51h39.23v41.89Z"/>
      <path d="M208.93,521.56h-47.09v-229.4h47.09v229.4Z"/>
    </g>
  </g>
</svg>