<?xml version="1.0" encoding="UTF-8"?>
<svg id="Calque_2" data-name="Calque 2" xmlns="http://www.w3.org/2000/svg" viewBox="0 0 1024 1024">
  <defs>
    <style>
      .cls-1 {
        fill: #fff;
      }
    </style>
  </defs>
  <g id="Calque_1-2" data-name="Calque 1">
    <g>
      <path class="cls-1" d="M0,0c341.33,0,682.67,0,1024,0,0,341.33,0,682.67,0,1024-341.33,0-682.67,0-1024,0C0,682.67,0,341.33,0,0ZM963.47,731.64V291.24H60.39v440.4H963.47Z"/>
      <path d="M963.47,731.64H60.39V291.24H963.47v440.4ZM451.33,335.87c-10.72,0-20.85,.15-30.96-.09-3.12-.07-4.69,.84-6.05,3.67-10.18,21.11-20.54,42.13-30.87,63.17-.78,1.58-1.72,3.09-3.15,5.65-6.04-24.48-11.79-47.8-17.61-71.37-10.65,0-20.96-.1-31.26,.13-1.21,.03-3.09,1.67-3.46,2.92-9.4,32.02-18.58,64.09-27.93,96.12-3.47,11.91-7.27,23.72-11.08,36.07,11.15,0,21.8,.11,32.44-.15,1.18-.03,2.98-1.97,3.37-3.34,5.59-19.82,11.03-39.68,16.39-59.56,1.34-4.97,2.31-10.03,3.45-15.05,.43,0,.85,0,1.28,.01,.54,1.65,1.25,3.26,1.61,4.94,4.18,19.66,8.41,39.3,12.42,58.99,2.75,13.49,2.61,13.62,16.17,13.19,1.7-.05,4.16-1.43,4.89-2.88,10.69-21.22,21.14-42.56,31.66-63.86,1.63-3.31,3.38-6.56,5.08-9.84,.52,.12,1.04,.24,1.56,.36,0,1.88,0,3.75,0,5.63-.13,22.16-.33,44.32-.29,66.48,0,1.63,1.58,4.65,2.5,4.68,10.77,.33,21.56,.21,32.29,.21-.82-45.48-1.63-90.52-2.45-136.09Zm166.07,51.54c-.4-17.28-9.98-34.66-30.32-45.72-14.4-7.83-29.7-9.79-45.87-7.98-35.21,3.95-74.11,35.3-72.97,82.01,.37,14.97,4.37,28.58,15.24,39.46,16.98,16.98,37.76,21.79,60.97,18.94,41.54-5.1,72.41-39.42,72.94-86.72Zm-184.62,194.4c11.22-5.01,22-9.72,32.63-14.75,.92-.44,1.44-3.11,1.14-4.53-1.48-6.93-5.52-12.37-10.76-16.98-21.82-19.16-54.44-21.48-81.02-5.59-29.37,17.56-42.81,44.36-43.39,77.76-.42,24.77,12.67,43.81,35.5,51.24,35.51,11.55,71.29,1.66,91.52-34.48,7.3-13.03,10.91-26.94,10.85-42.14-1.34-.08-2.3-.18-3.26-.18-16.16,.01-32.33,.06-48.49,.06q-11.34,0-13.01,10.87c-.08,.49-.23,.98-.28,1.47-.52,5.21-1.02,10.42-1.6,16.36h25.4c-3.57,8.05-7.91,14.41-15.07,18.36-18.14,10.01-41.25,4.15-44.24-20.61-.69-5.7-.39-11.69,.54-17.37,2.9-17.64,11.69-31.52,28.33-39.09,15.53-7.06,28.97-.45,33.78,15.82,.28,.94,.69,1.84,1.43,3.79Zm394.42-163.68c1.42-.59,2.17-.88,2.91-1.2,15.07-6.6,25.68-16.86,28.62-33.84,4.05-23.36-4.82-43.93-31.91-46.38-11.25-1.02-22.61-.8-33.92-1-7.78-.14-15.57-.03-23.57-.03-5.9,45.32-11.74,90.24-17.61,135.29h34.22c2.38-16.15,4.69-31.89,7.01-47.64,1.92,1.14,2.67,2.2,3.25,3.35,5.3,10.36,11.63,20.35,15.56,31.2,4.34,12.01,11.29,16.26,23.72,14.43,7.58-1.12,15.46-.21,24.29-.21-11.23-18.61-21.75-36.05-32.56-53.98Zm-190.28-81.01c-.36,2.01-.79,3.92-1.05,5.86-1.91,14.18-3.91,28.34-5.65,42.54-1.95,16-4.3,31.99-5.27,48.05-.98,16.23,6.93,28.34,21.45,35.29,20.52,9.82,41.6,8.43,61.87-.4,17.66-7.7,26.94-22.97,30.54-41.32,3.1-15.79,5.08-31.81,7.2-47.78,1.87-14.11,3.26-28.28,4.88-42.5-10.8,0-21.24-.1-31.68,.15-1.09,.03-2.92,2.07-3.09,3.34-2.55,19.96-4.56,40-7.4,59.91-1.47,10.29-3.34,20.74-6.83,30.47-4.24,11.82-16.41,16.79-28.27,13.32-10.07-2.94-15.05-12.57-13.3-25.31,3.29-23.89,6.49-47.78,9.72-71.68,.43-3.21,.81-6.42,1.26-9.96h-34.4Zm-178.86,332.13c12.22,0,24.01,.1,35.8-.14,1.28-.03,2.99-1.72,3.69-3.07,2.98-5.75,5.77-11.61,8.37-17.54,1.15-2.63,2.66-3.83,5.58-3.8,12.66,.14,25.32,.17,37.98,.13,2.83,0,4.1,.94,4.58,3.89,.9,5.57,2.14,11.1,3.61,16.55,.36,1.33,2.14,3.23,3.3,3.25,11.29,.25,22.6,.15,34.63,.15-11.35-45.36-22.65-90.53-33.89-135.43-.82-.27-1.13-.46-1.44-.46-7.83-.02-15.72,.61-23.47-.18-8.53-.86-12.79,1.94-16.64,10.03-20.14,42.28-41.16,84.15-62.1,126.63Zm-169.97-197.14c-.15-1.65-.11-2.66-.35-3.6-10.89-42.63-21.82-85.26-32.68-127.9-.67-2.62-1.71-3.83-4.69-3.73-7.32,.25-14.71,.66-21.97-.07-8.19-.82-13.75,1.17-15.47,9.88-.12,.63-.59,1.18-.89,1.77-19.92,39.81-39.85,79.62-59.75,119.44-.7,1.4-1.16,2.93-1.72,4.36,.82,.41,1.11,.67,1.39,.67,7.16-.15,14.32-.32,21.47-.5,4.9-.12,10.98,1.49,14.4-.83,3.74-2.53,5.57-8.5,7.24-13.32,2.78-7.99,7.45-11.57,16.19-10.44,5.72,.74,11.64-.02,17.47-.05,5.62-.04,11.24,0,16.9,0,1.54,7.11,2.8,13.63,4.44,20.06,.4,1.58,2.01,4.05,3.12,4.08,11.45,.3,22.92,.18,34.92,.18Zm-120.83,196.15c10.54,0,20.82-.13,31.1,.07,3.48,.07,4.45-1.23,4.85-4.54,1.44-11.87,3.31-23.69,4.89-35.54,.43-3.2,1.88-4.58,5.16-4.58,5.82,0,11.65-.18,17.47-.49,20.44-1.09,35.37-10.31,43.31-29.67,4.07-9.93,5.08-20.33,3.9-30.86-1.73-15.55-12.81-27.79-28.43-28.72-19.39-1.16-38.9-.35-58.35-.13-1.16,.01-3.07,2.23-3.31,3.65-2.99,17.69-5.77,35.41-8.54,53.13-4.02,25.72-7.99,51.44-12.06,77.69Zm686.75,.71c1.15-9.84,2.26-19.35,3.49-29.79h-42.21c1.2-7.26,2.53-13.61,3.21-20.03,.42-3.92,2.22-4.88,5.75-4.81,9.49,.19,18.99,.25,28.48,.11,1.47-.02,4.04-1.11,4.21-2.06,1.67-8.93,2.93-17.94,4.41-27.56h-38.24c.74-5.52,1.45-10.41,2.03-15.33,.95-7.97,1.13-8.14,9.13-8.13,10.12,.02,20.24,0,30.64,0,1.44-9.51,2.82-18.61,4.27-28.19h-74.3c-6.29,45.17-12.57,90.24-18.92,135.79h78.05Zm-209.4-29.76c4.35-35.94,8.59-70.97,12.88-106.5-10.61,0-21.08-.07-31.55,.1-1.03,.02-2.76,1.35-2.93,2.28-1.53,8.67-2.95,17.36-4.1,26.09-3.27,24.88-6.39,49.79-9.59,74.68-1.39,10.82-2.86,21.63-4.35,32.94h76.89c1.13-9.75,2.25-19.37,3.44-29.59h-40.69Zm99.17-106.29c-11.49,0-21.94-.06-32.38,.11-.83,.01-2.23,1.44-2.37,2.37-1.82,11.65-3.49,23.33-5.14,35.01-3.52,25.01-6.99,50.03-10.53,75.04-1.06,7.49-2.27,14.97-3.53,23.19h77.79c1.03-9.71,2.02-19.07,3.11-29.27h-41.44c4.87-35.8,9.64-70.79,14.49-106.44Zm-413.3,.1c-10.61,0-20.39,.18-30.16-.09-3.89-.11-5.01,1.21-5.52,4.97-3.99,29.8-8.25,59.57-12.4,89.35-1.87,13.45-3.66,26.92-5.59,41.13h34.47c6.35-44.79,12.71-89.63,19.2-135.36Z"/>
      <path class="cls-1" d="M451.33,335.87c.82,45.57,1.63,90.61,2.45,136.09-10.73,0-21.51,.12-32.29-.21-.92-.03-2.5-3.05-2.5-4.68-.03-22.16,.16-44.32,.29-66.48,.01-1.88,0-3.75,0-5.63-.52-.12-1.04-.24-1.56-.36-1.7,3.28-3.44,6.53-5.08,9.84-10.53,21.3-20.97,42.64-31.66,63.86-.73,1.46-3.19,2.83-4.89,2.88-13.56,.43-13.42,.3-16.17-13.19-4.01-19.69-8.24-39.34-12.42-58.99-.36-1.69-1.06-3.3-1.61-4.94-.43,0-.85,0-1.28-.01-1.14,5.02-2.11,10.09-3.45,15.05-5.37,19.88-10.81,39.74-16.39,59.56-.39,1.37-2.19,3.31-3.37,3.34-10.64,.26-21.29,.15-32.44,.15,3.8-12.35,7.6-24.16,11.08-36.07,9.35-32.03,18.53-64.11,27.93-96.12,.37-1.25,2.25-2.89,3.46-2.92,10.3-.23,20.61-.13,31.26-.13,5.82,23.57,11.57,46.89,17.61,71.37,1.44-2.56,2.38-4.07,3.15-5.65,10.33-21.04,20.69-42.06,30.87-63.17,1.37-2.83,2.94-3.74,6.05-3.67,10.12,.23,20.25,.09,30.96,.09Z"/>
      <path class="cls-1" d="M617.4,387.41c-.53,47.3-31.41,81.62-72.94,86.72-23.21,2.85-43.99-1.96-60.97-18.94-10.87-10.87-14.87-24.48-15.24-39.46-1.14-46.71,37.76-78.06,72.97-82.01,16.17-1.82,31.47,.14,45.87,7.98,20.33,11.06,29.92,28.44,30.32,45.72Zm-37.54,9.97c-.15-18.93-11.97-31.12-30.04-31.31-25.83-.26-44.17,20.3-44.5,44.64-.22,16.89,12.24,30.46,28.5,31.17,25.59,1.11,46.25-18.85,46.04-44.5Z"/>
      <path class="cls-1" d="M432.78,581.81c-.74-1.95-1.15-2.85-1.43-3.79-4.81-16.26-18.25-22.88-33.78-15.82-16.64,7.56-25.43,21.45-28.33,39.09-.93,5.68-1.23,11.67-.54,17.37,3,24.76,26.11,30.62,44.24,20.61,7.16-3.95,11.49-10.31,15.07-18.36h-25.4c.58-5.93,1.08-11.15,1.6-16.36,.05-.5,.2-.98,.28-1.47q1.67-10.9,13.01-10.87c16.16,0,32.33-.05,48.49-.06,.96,0,1.92,.1,3.26,.18,.06,15.2-3.55,29.11-10.85,42.14-20.23,36.14-56.01,46.02-91.52,34.48-22.83-7.42-35.93-26.46-35.5-51.24,.57-33.4,14.02-60.21,43.39-77.76,26.58-15.89,59.2-13.57,81.02,5.59,5.24,4.6,9.28,10.05,10.76,16.98,.3,1.42-.21,4.1-1.14,4.53-10.63,5.03-21.41,9.74-32.63,14.75Z"/>
      <path class="cls-1" d="M827.21,418.13c10.82,17.93,21.34,35.37,32.56,53.98-8.83,0-16.71-.91-24.29,.21-12.43,1.83-19.37-2.42-23.72-14.43-3.93-10.86-10.26-20.85-15.56-31.2-.59-1.15-1.34-2.21-3.25-3.35-2.32,15.74-4.63,31.49-7.01,47.64h-34.22c5.86-45.06,11.71-89.97,17.61-135.29,8,0,15.79-.11,23.57,.03,11.31,.2,22.67-.02,33.92,1,27.1,2.46,35.96,23.02,31.91,46.38-2.94,16.98-13.54,27.25-28.62,33.84-.74,.32-1.49,.61-2.91,1.2Zm-30.77-21.41c7.24,.54,14.15,1.14,20.52-2.81,6.1-3.78,9.24-12.89,7.14-20.79-1.66-6.23-6.44-9.49-14.47-9.76-2.81-.09-5.63-.02-8.92-.02-1.41,11.05-2.82,22.03-4.26,33.37Z"/>
      <path class="cls-1" d="M636.93,337.12h34.4c-.45,3.54-.82,6.75-1.26,9.96-3.23,23.89-6.43,47.79-9.72,71.68-1.76,12.74,3.22,22.37,13.3,25.31,11.86,3.47,24.03-1.5,28.27-13.32,3.49-9.73,5.36-20.18,6.83-30.47,2.84-19.92,4.85-39.95,7.4-59.91,.16-1.28,1.99-3.32,3.09-3.34,10.43-.26,20.88-.15,31.68-.15-1.61,14.21-3,28.39-4.88,42.5-2.12,15.97-4.1,31.99-7.2,47.78-3.6,18.35-12.88,33.62-30.54,41.32-20.27,8.84-41.35,10.22-61.87,.4-14.52-6.95-22.43-19.06-21.45-35.29,.97-16.07,3.32-32.06,5.27-48.05,1.73-14.2,3.73-28.36,5.65-42.54,.26-1.94,.69-3.86,1.05-5.86Z"/>
      <path class="cls-1" d="M458.07,669.25c20.94-42.48,41.95-84.35,62.1-126.63,3.85-8.09,8.11-10.89,16.64-10.03,7.75,.78,15.64,.16,23.47,.18,.31,0,.62,.19,1.44,.46,11.23,44.9,22.54,90.08,33.89,135.43-12.03,0-23.33,.1-34.63-.15-1.16-.03-2.94-1.92-3.3-3.25-1.47-5.45-2.71-10.98-3.61-16.55-.48-2.95-1.75-3.9-4.58-3.89-12.66,.04-25.32,0-37.98-.13-2.92-.03-4.43,1.17-5.58,3.8-2.59,5.94-5.39,11.79-8.37,17.54-.7,1.34-2.41,3.04-3.69,3.07-11.79,.24-23.58,.14-35.8,.14Zm88.87-53.21c-2.88-12.85-5.64-25.16-8.39-37.46-.38-.06-.76-.11-1.14-.17-5.55,12.28-11.1,24.56-17,37.63h26.54Z"/>
      <path class="cls-1" d="M288.1,472.11c-12.01,0-23.47,.12-34.92-.18-1.11-.03-2.71-2.49-3.12-4.08-1.64-6.42-2.9-12.94-4.44-20.06-5.66,0-11.28-.03-16.9,0-5.83,.04-11.74,.79-17.47,.05-8.74-1.13-13.41,2.45-16.19,10.44-1.67,4.81-3.5,10.78-7.24,13.32-3.42,2.32-9.49,.71-14.4,.83-7.16,.17-14.31,.35-21.47,.5-.28,0-.57-.26-1.39-.67,.56-1.43,1.02-2.95,1.72-4.36,19.9-39.82,39.82-79.63,59.75-119.44,.3-.59,.77-1.15,.89-1.77,1.73-8.72,7.28-10.7,15.47-9.88,7.26,.73,14.65,.31,21.97,.07,2.99-.1,4.03,1.11,4.69,3.73,10.86,42.64,21.79,85.26,32.68,127.9,.24,.94,.2,1.95,.35,3.6Zm-57.94-91c-5.94,13.24-11.56,25.76-17.22,38.38h26.27c-2.62-12.26-5.14-24.05-7.69-35.84-.13-.58-.57-1.09-1.36-2.54Z"/>
      <path class="cls-1" d="M167.27,668.26c4.07-26.25,8.04-51.98,12.06-77.69,2.77-17.72,5.55-35.44,8.54-53.13,.24-1.42,2.15-3.64,3.31-3.65,19.45-.22,38.97-1.03,58.35,.13,15.62,.94,26.69,13.18,28.43,28.72,1.17,10.53,.17,20.93-3.9,30.86-7.94,19.36-22.87,28.58-43.31,29.67-5.82,.31-11.64,.49-17.47,.49-3.29,0-4.74,1.38-5.16,4.58-1.58,11.86-3.45,23.67-4.89,35.54-.4,3.31-1.37,4.61-4.85,4.54-10.28-.2-20.57-.07-31.1-.07Zm54.02-72.37c16.4,1.41,23.42-11.84,21.44-26.27-.6-4.38-3.35-7.81-7.94-8.56-3.89-.63-7.92-.37-11.88-.6-3-.17-4.49,.94-4.93,4.12-1.1,7.89-2.64,15.71-3.8,23.59-1.14,7.73-1.04,7.75,7.12,7.72Z"/>
      <path class="cls-1" d="M854.02,668.97h-78.05c6.35-45.55,12.63-90.62,18.92-135.79h74.3c-1.45,9.58-2.83,18.68-4.27,28.19-10.4,0-20.52,.01-30.64,0-7.99-.01-8.17,.16-9.13,8.13-.59,4.91-1.3,9.81-2.03,15.33h38.24c-1.48,9.63-2.74,18.63-4.41,27.56-.18,.95-2.74,2.04-4.21,2.06-9.49,.13-18.99,.08-28.48-.11-3.54-.07-5.34,.89-5.75,4.81-.68,6.42-2.01,12.77-3.21,20.03h42.21c-1.22,10.44-2.34,19.95-3.49,29.79Z"/>
      <path class="cls-1" d="M644.61,639.21h40.69c-1.19,10.22-2.3,19.84-3.44,29.59h-76.89c1.5-11.31,2.96-22.12,4.35-32.94,3.21-24.89,6.32-49.8,9.59-74.68,1.15-8.73,2.57-17.42,4.1-26.09,.17-.94,1.9-2.27,2.93-2.28,10.47-.17,20.94-.1,31.55-.1-4.3,35.53-8.54,70.56-12.88,106.5Z"/>
      <path class="cls-1" d="M743.79,532.92c-4.85,35.65-9.61,70.64-14.49,106.44h41.44c-1.08,10.21-2.08,19.56-3.11,29.27h-77.79c1.26-8.23,2.47-15.7,3.53-23.19,3.54-25.01,7-50.03,10.53-75.04,1.65-11.68,3.32-23.35,5.14-35.01,.14-.92,1.54-2.35,2.37-2.37,10.44-.16,20.89-.11,32.38-.11Z"/>
      <path class="cls-1" d="M330.49,533.02c-6.49,45.73-12.85,90.57-19.2,135.36h-34.47c1.93-14.21,3.72-27.68,5.59-41.13,4.14-29.78,8.4-59.55,12.4-89.35,.5-3.76,1.63-5.08,5.52-4.97,9.77,.28,19.55,.09,30.16,.09Z"/>
      <path d="M579.86,397.39c.21,25.65-20.45,45.61-46.04,44.5-16.26-.71-28.72-14.28-28.5-31.17,.32-24.34,18.67-44.9,44.5-44.64,18.08,.19,29.89,12.38,30.04,31.31Z"/>
      <path d="M796.44,396.72c1.45-11.34,2.85-22.32,4.26-33.37,3.29,0,6.11-.08,8.92,.02,8.03,.27,12.81,3.53,14.47,9.76,2.11,7.91-1.04,17.01-7.14,20.79-6.37,3.95-13.28,3.35-20.52,2.81Z"/>
      <path d="M546.94,616.04h-26.54c5.91-13.07,11.45-25.35,17-37.63,.38,.06,.76,.11,1.14,.17,2.76,12.31,5.51,24.61,8.39,37.46Z"/>
      <path d="M230.16,381.11c.79,1.45,1.23,1.96,1.36,2.54,2.55,11.79,5.07,23.58,7.69,35.84h-26.27c5.67-12.62,11.28-25.14,17.22-38.38Z"/>
      <path d="M221.29,595.89c-8.15,.03-8.26,.02-7.12-7.72,1.17-7.88,2.7-15.7,3.8-23.59,.44-3.17,1.93-4.29,4.93-4.12,3.96,.23,7.99-.03,11.88,.6,4.59,.75,7.34,4.17,7.94,8.56,1.98,14.43-5.04,27.69-21.44,26.27Z"/>
    </g>
  </g>
</svg>